<svg xmlns="http://www.w3.org/2000/svg" viewBox="0 0 760 400" font-family="Microsoft YaHei, sans-serif">
  <rect width="760" height="400" fill="#f8fafc"/>
  <text x="380" y="28" text-anchor="middle" font-size="16" font-weight="bold" fill="#1e293b">? 2-2 ?????</text>
  <rect x="180" y="50" width="520" height="320" fill="none" stroke="#64748b" stroke-dasharray="8 4"/>
  <text x="195" y="72" font-size="12" fill="#64748b">????????</text>
  <circle cx="70" cy="110" r="12" fill="none" stroke="#1e293b" stroke-width="2"/>
  <line x1="70" y1="122" x2="70" y2="155" stroke="#1e293b" stroke-width="2"/>
  <text x="70" y="175" text-anchor="middle" font-size="12">???</text>
  <circle cx="70" cy="260" r="12" fill="none" stroke="#1e293b" stroke-width="2"/>
  <line x1="70" y1="272" x2="70" y2="305" stroke="#1e293b" stroke-width="2"/>
  <text x="70" y="325" text-anchor="middle" font-size="12">??</text>
  <ellipse cx="300" cy="100" rx="75" ry="24" fill="#eff6ff" stroke="#2563eb"/>
  <text x="300" y="105" text-anchor="middle" font-size="11">????</text>
  <ellipse cx="460" cy="100" rx="75" ry="24" fill="#eff6ff" stroke="#2563eb"/>
  <text x="460" y="105" text-anchor="middle" font-size="11">??????</text>
  <ellipse cx="620" cy="100" rx="75" ry="24" fill="#eff6ff" stroke="#2563eb"/>
  <text x="620" y="105" text-anchor="middle" font-size="11">??????</text>
  <ellipse cx="380" cy="180" rx="75" ry="24" fill="#eff6ff" stroke="#2563eb"/>
  <text x="380" y="185" text-anchor="middle" font-size="11">????</text>
  <ellipse cx="300" cy="280" rx="75" ry="24" fill="#ecfdf5" stroke="#10b981"/>
  <text x="300" y="285" text-anchor="middle" font-size="11">??????</text>
  <ellipse cx="460" cy="280" rx="75" ry="24" fill="#ecfdf5" stroke="#10b981"/>
  <text x="460" y="285" text-anchor="middle" font-size="11">??????</text>
  <line x1="95" y1="110" x2="225" y2="100" stroke="#64748b"/>
  <line x1="95" y1="115" x2="385" y2="100" stroke="#64748b"/>
  <line x1="95" y1="120" x2="545" y2="100" stroke="#64748b"/>
  <line x1="95" y1="125" x2="380" y2="180" stroke="#64748b"/>
  <line x1="95" y1="260" x2="225" y2="280" stroke="#64748b"/>
  <line x1="95" y1="265" x2="385" y2="280" stroke="#64748b"/>
</svg>
