<svg xmlns="http://www.w3.org/2000/svg" viewBox="0 0 720 380" font-family="Microsoft YaHei, sans-serif">
  <rect width="720" height="380" fill="#f8fafc"/>
  <text x="360" y="28" text-anchor="middle" font-size="16" font-weight="bold" fill="#1e293b">þ 2-2 ûß(‹þ</text>
  <rect x="160" y="50" width="500" height="300" fill="none" stroke="#64748b" stroke-dasharray="8 4"/>
  <text x="175" y="72" font-size="12" fill="#64748b">fé¡ûß</text>
  <circle cx="70" cy="120" r="12" fill="none" stroke="#1e293b" stroke-width="2"/>
  <line x1="70" y1="132" x2="70" y2="165" stroke="#1e293b" stroke-width="2"/>
  <line x1="70" y1="145" x2="55" y2="160" stroke="#1e293b" stroke-width="2"/>
  <line x1="70" y1="145" x2="85" y2="160" stroke="#1e293b" stroke-width="2"/>
  <text x="70" y="185" text-anchor="middle" font-size="12">¡X</text>
  <ellipse cx="280" cy="110" rx="80" ry="26" fill="#eff6ff" stroke="#2563eb"/>
  <text x="280" y="115" text-anchor="middle" font-size="11">{UèŒ</text>
  <ellipse cx="450" cy="110" rx="80" ry="26" fill="#eff6ff" stroke="#2563eb"/>
  <text x="450" y="115" text-anchor="middle" font-size="11">f¡</text>
  <ellipse cx="280" cy="180" rx="80" ry="26" fill="#eff6ff" stroke="#2563eb"/>
  <text x="280" y="185" text-anchor="middle" font-size="11">þ¡</text>
  <ellipse cx="450" cy="180" rx="80" ry="26" fill="#eff6ff" stroke="#2563eb"/>
  <text x="450" y="185" text-anchor="middle" font-size="11">é¡</text>
  <ellipse cx="360" cy="250" rx="80" ry="26" fill="#eff6ff" stroke="#2563eb"/>
  <text x="360" y="255" text-anchor="middle" font-size="11">"åâ</text>
  <ellipse cx="360" cy="320" rx="80" ry="26" fill="#eff6ff" stroke="#2563eb"/>
  <text x="360" y="325" text-anchor="middle" font-size="11">ß¡þh</text>
  <line x1="95" y1="120" x2="200" y2="110" stroke="#64748b"/>
  <line x1="95" y1="130" x2="370" y2="110" stroke="#64748b"/>
  <line x1="95" y1="140" x2="200" y2="180" stroke="#64748b"/>
  <line x1="95" y1="150" x2="370" y2="180" stroke="#64748b"/>
  <line x1="95" y1="160" x2="280" y2="250" stroke="#64748b"/>
  <line x1="95" y1="170" x2="280" y2="320" stroke="#64748b"/>
</svg>
